<svg width="67" height="67" viewBox="0 0 67 67" fill="none" xmlns="http://www.w3.org/2000/svg">
<rect width="67" height="67" rx="33.5" fill="#C7E957"/>
<path d="M33.6675 35.0305C35.8435 35.0305 37.2195 36.0865 37.2195 38.7425V39.4465C37.2195 42.0385 35.8435 43.1585 33.6675 43.1585C31.4915 43.1585 30.0515 42.0065 30.0515 39.3825V38.2625H26.8515V39.6705C26.8515 43.8625 29.8915 46.1025 33.6675 46.1025C37.4115 46.1025 40.4195 43.8625 40.4195 39.7345V38.3265C40.4195 35.7345 39.0435 33.9745 36.9635 33.1105C38.6595 32.2465 39.7795 30.6465 39.7795 28.3745V27.2225C39.7795 23.4785 37.0275 21.4625 33.6675 21.4625C30.2435 21.4625 27.4915 23.4465 27.4915 27.1585V28.3105H30.6915V27.4465C30.6915 25.3025 31.9395 24.4065 33.6675 24.4065C35.3955 24.4065 36.5795 25.3025 36.5795 27.5105V28.4705C36.5795 30.8385 35.4595 31.8305 33.6675 31.8305H31.8755V35.0305H33.6675Z" fill="black"/>
</svg>
